<svg width="849" height="849" viewBox="0 0 849 849" fill="none" xmlns="http://www.w3.org/2000/svg">
<path d="M133.002 394.077C133.002 399.274 128.799 403.483 123.617 403.483C118.434 403.483 114.232 399.268 114.232 394.077C114.232 388.886 118.434 384.677 123.617 384.677C128.799 384.671 133.002 388.886 133.002 394.077ZM258.878 383.771C203.517 377.729 175.706 399.7 106.994 450.782C48.1607 494.523 37.0782 460.144 39.2506 445.197C42.4476 423.22 93.0693 320.021 141.837 256.146C202.168 271.838 248.25 321.815 258.878 383.773V383.771ZM139.57 394.077C139.57 385.247 132.427 378.098 123.616 378.098C114.806 378.098 107.662 385.253 107.662 394.077C107.662 402.908 114.806 410.063 123.616 410.063C132.427 410.063 139.57 402.902 139.57 394.077ZM107.494 497.564L106.995 527.57L150.548 576.058L129.599 591.774L200.665 650.525L175.576 667.886L266.541 710.501L243.444 731.334L346.486 748.595L330.425 770.622L434.46 760.941L425.93 786L540.974 747.207L535.086 775.75L637.672 702.352L640.825 731.334L713.558 627.523L729.511 657.88L761.918 532.024L784.091 550.261L779.527 426.555L809 437.519L764.016 328.091L792.615 328.191L720.714 238.151L753.385 235.231L653.041 165.067L683.456 147.117L566.509 115.74L586.258 90.7496L480.37 91.5001L481.65 63L399.425 93.0948L396.016 65.9763L332.039 111.769L318.283 88.5798L270.084 145.223L255.104 124.767L214.729 189.509L194.254 170.822L158.506 235.232C225.743 257.021 275.823 316.341 284.671 388.138C285.532 388.325 236.941 454.938 308.049 511.769C306.819 505.389 295.005 396.575 409.391 388.652C466.295 384.712 512.663 434.957 512.663 492.087C512.663 509.58 508.286 526.027 500.637 540.469C466.649 603.753 362.247 606.2 329.021 605.855C232.673 604.873 107.003 495.747 107.003 495.747L107.494 497.564Z" fill="black"/>
</svg>
